<svg fill="none" height="24" viewBox="0 0 24 24" width="24" xmlns="http://www.w3.org/2000/svg"><path clip-rule="evenodd" d="m12 22c-5.52285 0-10-4.4772-10-10 0-5.52285 4.47715-10 10-10 5.5228 0 10 4.47715 10 10 0 5.5228-4.4772 10-10 10zm1.7697-6.0041c.2209 0 .4-.1791.4-.4v-.45c0-.2209-.1791-.4-.4-.4h-2.7719v-1.2489h2.0781c2.1875 0 3.6329-1.2584 3.6329-3.2897 0-2.03906-1.4141-3.7572-3.5782-3.7572h-3.48279c-.22091 0-.4.17909-.4.4v5.1625h-1.10781c-.22091 0-.4.1791-.4.4v.6687c0 .221.17909.4.4.4h1.10781v1.2646h-1.10781c-.22091 0-.4.1791-.4.4v.45c0 .2209.17909.4.4.4h1.10781v1.3541c0 .2209.17909.4.4.4h.94999c.2209 0 .4-.1791.4-.4v-1.3541zm-2.7719-7.99893h1.6406c1.5235 0 2.2813.77344 2.2813 2 0 1.22653-.7578 2.00003-2.2813 2.00003h-1.6406z" fill-rule="evenodd"/></svg>