<svg fill="none" height="24" viewBox="0 0 24 24" width="24" xmlns="http://www.w3.org/2000/svg"><path clip-rule="evenodd" d="m9.12681 5.05221c1.25579-.7194 1.47319-1.46914 1.62319-2.21888.1667-.83333.4167-.83333.8333-.83333h.8334c.4166 0 .5833 0 .8333.83333.2253.75089.3829 1.50178 1.6312 2.22219 1.3967.37932 2.0805.00289 2.7167-.42122.7071-.47139.8839-.29462 1.1785 0 .2947.29463.2947.29463.5893.58926s.4125.41249 0 1.17851c-.3717.69024-.7912 1.33265-.4179 2.72474.7194 1.25579 1.4691 1.47319 2.2189 1.62319.8333.1667.8333.4167.8333.8333v.8334c0 .4166 0 .5833-.8333.8333-.7509.2253-1.5018.3829-2.2222 1.6312-.3793 1.3967-.0029 2.0805.4212 2.7167.4714.7071.2946.8839 0 1.1785-.2946.2947-.2946.2947-.5893.5893-.2946.2946-.4124.4125-1.1785 0-.6902-.3717-1.3326-.7912-2.7247-.4179-1.2558.7194-1.4732 1.4691-1.6232 2.2189-.1667.8333-.4167.8333-.8333.8333-.4167 0-.4167 0-.8334 0-.4166 0-.5833 0-.8333-.8333-.2253-.7509-.3829-1.5018-1.63118-2.2222-1.3967-.3793-2.08057-.0029-2.71675.4212-.70711.4714-.88388.2946-1.17851 0s-.29463-.2946-.58926-.5893c-.29462-.2946-.41248-.4124 0-1.1785.37168-.6902.79119-1.3326.41791-2.7247-.7194-1.2558-1.46914-1.4732-2.21888-1.6232-.83333-.1667-.83333-.4167-.83333-.8333 0-.4167 0-.4167 0-.8334 0-.4166 0-.5833.83333-.8333.75089-.2253 1.50178-.3829 2.22219-1.63118.37932-1.3967.00289-2.08057-.42122-2.71675-.47139-.70711-.29462-.88388 0-1.17851.29463-.29463.29463-.29463.58926-.58926.29463-.29462.41249-.41248 1.17851 0 .69024.37168 1.33265.79119 2.72474.41791zm2.87319 11.69779c2.6234 0 4.75-2.1266 4.75-4.75 0-2.62335-2.1266-4.75-4.75-4.75-2.62335 0-4.75 2.12665-4.75 4.75 0 2.6234 2.12665 4.75 4.75 4.75z" fill-rule="evenodd"/></svg>