<svg fill="none" height="20" viewBox="0 0 20 20" width="20" xmlns="http://www.w3.org/2000/svg"><path clip-rule="evenodd" d="m17 5h-4v-1c0-.53043-.2107-1.03911-.5858-1.41418-.3751-.37508-.8838-.58582-1.4142-.58582h-2c-.53043 0-1.03914.21074-1.41422.58582-.37507.37507-.58578.88375-.58578 1.41418v1h-4c-.26522 0-.51957.10537-.70711.29291-.18753.18753-.29289.44187-.29289.70709s.10536.51956.29289.70709c.18754.18754.44189.29291.70711.29291h1v9c0 .5304.21071 1.0391.58578 1.4142.37508.3751.88379.5858 1.41422.5858h8c.5304 0 1.0391-.2107 1.4142-.5858s.5858-.8838.5858-1.4142v-9h1c.2652 0 .5196-.10537.7071-.29291.1875-.18753.2929-.44187.2929-.70709s-.1054-.51956-.2929-.70709c-.1875-.18754-.4419-.29291-.7071-.29291zm-8-1h2v1h-2zm5 12h-8v-9h8zm-5-7c-.26522 0-.51957.10537-.70711.29291-.18753.18753-.29289.44187-.29289.70709 0 .2652.10536.5196.29289.7071.18754.1875.44189.2929.70711.2929h2c.2652 0 .5196-.1054.7071-.2929s.2929-.4419.2929-.7071c0-.26522-.1054-.51956-.2929-.70709-.1875-.18754-.4419-.29291-.7071-.29291z" fill-rule="evenodd"/></svg>